<svg width="70" height="46" viewBox="0 0 70 46" fill="none" xmlns="http://www.w3.org/2000/svg">
<path d="M49.2503 26.1667C45.4503 26.1667 39.5287 27.2433 35.0003 29.3333C30.472 27.2117 24.5503 26.1667 20.7503 26.1667C13.8787 26.1667 0.166992 29.5867 0.166992 36.4583V45.1667H69.8337V36.4583C69.8337 29.5867 56.122 26.1667 49.2503 26.1667ZM36.5837 40.4167H4.91699V36.4583C4.91699 34.7483 13.0237 30.9167 20.7503 30.9167C28.477 30.9167 36.5837 34.7483 36.5837 36.4583V40.4167ZM65.0837 40.4167H41.3337V36.4583C41.3337 35.0017 40.7003 33.735 39.687 32.595C42.4737 31.645 45.8937 30.9167 49.2503 30.9167C56.977 30.9167 65.0837 34.7483 65.0837 36.4583V40.4167ZM20.7503 23C26.862 23 31.8337 18.0283 31.8337 11.9167C31.8337 5.805 26.862 0.833328 20.7503 0.833328C14.6387 0.833328 9.66699 5.805 9.66699 11.9167C9.66699 18.0283 14.6387 23 20.7503 23ZM20.7503 5.58333C24.2337 5.58333 27.0837 8.43333 27.0837 11.9167C27.0837 15.4 24.2337 18.25 20.7503 18.25C17.267 18.25 14.417 15.4 14.417 11.9167C14.417 8.43333 17.267 5.58333 20.7503 5.58333ZM49.2503 23C55.362 23 60.3337 18.0283 60.3337 11.9167C60.3337 5.805 55.362 0.833328 49.2503 0.833328C43.1387 0.833328 38.167 5.805 38.167 11.9167C38.167 18.0283 43.1387 23 49.2503 23ZM49.2503 5.58333C52.7337 5.58333 55.5837 8.43333 55.5837 11.9167C55.5837 15.4 52.7337 18.25 49.2503 18.25C45.767 18.25 42.917 15.4 42.917 11.9167C42.917 8.43333 45.767 5.58333 49.2503 5.58333Z" fill="#E74362"/>
</svg>
