<svg width="20" height="19" viewBox="0 0 20 19" fill="none" xmlns="http://www.w3.org/2000/svg">
<path d="M9.99984 2.49996C11.2832 2.49996 12.3332 3.54996 12.3332 4.83329C12.3332 6.11663 11.2832 7.16663 9.99984 7.16663C8.7165 7.16663 7.6665 6.11663 7.6665 4.83329C7.6665 3.54996 8.7165 2.49996 9.99984 2.49996ZM9.99984 14.1666C13.1498 14.1666 16.7665 15.6716 16.9998 16.5H2.99984C3.26817 15.66 6.8615 14.1666 9.99984 14.1666ZM9.99984 0.166626C7.4215 0.166626 5.33317 2.25496 5.33317 4.83329C5.33317 7.41163 7.4215 9.49996 9.99984 9.49996C12.5782 9.49996 14.6665 7.41163 14.6665 4.83329C14.6665 2.25496 12.5782 0.166626 9.99984 0.166626ZM9.99984 11.8333C6.88484 11.8333 0.666504 13.3966 0.666504 16.5V18.8333H19.3332V16.5C19.3332 13.3966 13.1148 11.8333 9.99984 11.8333Z" fill="#E74362"/>
</svg>
