<svg width="24" height="35" viewBox="0 0 24 35" fill="white" xmlns="http://www.w3.org/2000/svg">
<path d="M5.882 17.6129C6.08663 17.5232 6.30669 17.4765 6.52917 17.4757C6.75165 17.4748 6.97203 17.5199 7.17729 17.6081C7.38254 17.6964 7.56851 17.826 7.72419 17.9895C7.87988 18.1529 8.00212 18.3467 8.08369 18.5595C8.16526 18.7723 8.2045 18.9998 8.1991 19.2285C8.1937 19.4572 8.14377 19.6824 8.05225 19.8909C7.96073 20.0994 7.82948 20.2869 7.66627 20.4424C7.50306 20.5978 7.31119 20.718 7.10201 20.7959C5.98943 21.2467 5.03453 22.0312 4.36158 23.0476C3.68862 24.0639 3.32876 25.265 3.32881 26.4945V29.4722C3.32881 29.926 3.50416 30.3613 3.8163 30.6822C4.12844 31.0032 4.55178 31.1835 4.99321 31.1835H18.3084C18.7499 31.1835 19.1732 31.0032 19.4854 30.6822C19.7975 30.3613 19.9728 29.926 19.9728 29.4722V26.6537C19.973 25.3847 19.5981 24.1457 18.8978 23.1008C18.1975 22.0559 17.2049 21.2545 16.0515 20.8028C15.841 20.7277 15.6474 20.6099 15.482 20.4564C15.3166 20.3029 15.1828 20.1169 15.0887 19.9093C14.9945 19.7017 14.9419 19.4767 14.9339 19.2478C14.9258 19.0189 14.9626 18.7906 15.0419 18.5766C15.1213 18.3625 15.2416 18.167 15.3958 18.0017C15.55 17.8364 15.7349 17.7045 15.9396 17.614C16.1442 17.5235 16.3645 17.4762 16.5873 17.4748C16.8101 17.4735 17.0309 17.5181 17.2366 17.6061C19.0201 18.3046 20.5552 19.5438 21.6383 21.1596C22.7214 22.7753 23.3015 24.6913 23.3017 26.6537V29.4722C23.3017 30.8338 22.7756 32.1396 21.8392 33.1024C20.9028 34.0652 19.6327 34.606 18.3084 34.606H4.99321C3.66893 34.606 2.39889 34.0652 1.46248 33.1024C0.526069 32.1396 0 30.8338 0 29.4722L0 26.4945C0.000229023 24.5782 0.561365 22.7062 1.61041 21.1222C2.65946 19.5382 4.14786 18.3154 5.882 17.6129ZM11.6508 0.38028C13.4165 0.38028 15.1099 1.10146 16.3585 2.38518C17.607 3.66889 18.3084 5.40998 18.3084 7.22543V10.648C18.3084 12.4635 17.607 14.2045 16.3585 15.4883C15.1099 16.772 13.4165 17.4932 11.6508 17.4932C9.88512 17.4932 8.19173 16.772 6.94318 15.4883C5.69464 14.2045 4.99321 12.4635 4.99321 10.648V7.22543C4.99321 5.40998 5.69464 3.66889 6.94318 2.38518C8.19173 1.10146 9.88512 0.38028 11.6508 0.38028ZM11.6508 3.80286C10.768 3.80286 9.92128 4.16345 9.297 4.80531C8.67273 5.44716 8.32202 6.31771 8.32202 7.22543V10.648C8.32202 11.5557 8.67273 12.4263 9.297 13.0681C9.92128 13.71 10.768 14.0706 11.6508 14.0706C12.5337 14.0706 13.3804 13.71 14.0046 13.0681C14.6289 12.4263 14.9796 11.5557 14.9796 10.648V7.22543C14.9796 6.31771 14.6289 5.44716 14.0046 4.80531C13.3804 4.16345 12.5337 3.80286 11.6508 3.80286Z"/>
</svg>
