<svg width="50" height="50" viewBox="0 0 50 50" fill="white" xmlns="http://www.w3.org/2000/svg">
<g>
<path d="M24.9791 4.16675C13.4791 4.16675 4.16663 13.5001 4.16663 25.0001C4.16663 36.5001 13.4791 45.8334 24.9791 45.8334C36.5 45.8334 45.8333 36.5001 45.8333 25.0001C45.8333 13.5001 36.5 4.16675 24.9791 4.16675ZM25 41.6668C15.7916 41.6668 8.33329 34.2084 8.33329 25.0001C8.33329 15.7917 15.7916 8.33342 25 8.33342C34.2083 8.33342 41.6666 15.7917 41.6666 25.0001C41.6666 34.2084 34.2083 41.6668 25 41.6668Z"/>
<path d="M26.0416 14.5833H22.9166V27.0833L33.8541 33.6458L35.4166 31.0833L26.0416 25.5208V14.5833Z"/>
</g>
</svg>
