<svg width="36" height="34" viewBox="0 0 36 34" fill="none" xmlns="http://www.w3.org/2000/svg">
<path d="M16.6027 20.3947L3.77294 33.221C3.60877 33.391 3.41239 33.5265 3.19526 33.6198C2.97814 33.7131 2.7446 33.7622 2.5083 33.7642C2.27199 33.7663 2.03764 33.7213 1.81893 33.6318C1.60021 33.5423 1.4015 33.4101 1.2344 33.243C1.0673 33.0759 0.935155 32.8772 0.84567 32.6585C0.756186 32.4398 0.711157 32.2054 0.71321 31.9691C0.715264 31.7328 0.764359 31.4993 0.85763 31.2822C0.950902 31.065 1.08648 30.8687 1.25646 30.7045L14.2909 17.67C14.1894 17.105 14.2262 16.5238 14.3979 15.976C14.5697 15.4282 14.8715 14.93 15.2774 14.5241C15.6834 14.1181 16.1815 13.8164 16.7293 13.6446C17.2771 13.4728 17.8583 13.4361 18.4234 13.5376L31.4632 0.49958C31.7988 0.175395 32.2484 -0.0039876 32.715 6.7277e-05C33.1816 0.00412216 33.628 0.19129 33.958 0.521259C34.2879 0.851229 34.4751 1.2976 34.4791 1.76423C34.4832 2.23086 34.3038 2.68041 33.9796 3.01606L21.1516 15.8476C21.3782 16.4822 21.4199 17.1681 21.2721 17.8255C21.1242 18.4828 20.7928 19.0848 20.3163 19.5612C19.8399 20.0377 19.2379 20.3691 18.5806 20.517C17.9232 20.6648 17.2373 20.6213 16.6027 20.3947ZM30.0216 9.49058C33.3692 11.4198 35.5938 14.0857 35.5938 17.04C35.5938 22.9379 26.7701 27.7057 17.7969 27.7182C15.9709 27.718 14.1499 27.5272 12.3635 27.1487L15.6755 23.8384C16.9156 24.226 18.2381 24.2667 19.4997 23.9563C20.7613 23.6459 21.9139 22.9961 22.8325 22.0774C23.7512 21.1587 24.401 20.0062 24.7114 18.7446C25.0218 17.483 24.9811 16.1605 24.5935 14.9204L30.0216 9.49058ZM22.6181 6.82816L19.3541 10.0921C18.1831 9.82924 16.9646 9.86669 15.8119 10.201C14.6593 10.5353 13.6098 11.1556 12.7612 12.0043C11.9125 12.8529 11.2922 13.9024 10.9579 15.0551C10.6236 16.2077 10.5861 17.4262 10.849 18.5973L5.10593 24.3368C2.01817 22.4289 0 19.8608 0 17.04C0 11.1421 8.86998 6.33163 17.7969 6.36188C19.4235 6.36722 21.0484 6.52917 22.6181 6.82816Z" fill="white"/>
</svg>