<svg width="22" height="24" viewBox="0 0 22 24" fill="#E74362" xmlns="http://www.w3.org/2000/svg">
<path d="M19.1667 2.99996H14.29C13.8 1.64663 12.5167 0.666626 11 0.666626C9.48333 0.666626 8.2 1.64663 7.71 2.99996H2.83333C1.55 2.99996 0.5 4.04996 0.5 5.33329V21.6666C0.5 22.95 1.55 24 2.83333 24H19.1667C20.45 24 21.5 22.95 21.5 21.6666V5.33329C21.5 4.04996 20.45 2.99996 19.1667 2.99996ZM11 2.99996C11.6417 2.99996 12.1667 3.52496 12.1667 4.16663C12.1667 4.80829 11.6417 5.33329 11 5.33329C10.3583 5.33329 9.83333 4.80829 9.83333 4.16663C9.83333 3.52496 10.3583 2.99996 11 2.99996ZM13.3333 19.3333H5.16667V17H13.3333V19.3333ZM16.8333 14.6666H5.16667V12.3333H16.8333V14.6666ZM16.8333 9.99996H5.16667V7.66663H16.8333V9.99996Z"/>
</svg>
