<svg width="110" height="104" viewBox="0 0 110 104" fill="white" xmlns="http://www.w3.org/2000/svg">
<path d="M51.4935 63.1263L12.4055 102.203C11.9054 102.721 11.307 103.134 10.6455 103.419C9.98401 103.703 9.27252 103.852 8.55258 103.859C7.83263 103.865 7.11865 103.728 6.45229 103.455C5.78594 103.182 5.18055 102.78 4.67145 102.271C4.16235 101.762 3.75974 101.156 3.48712 100.49C3.21449 99.8235 3.0773 99.1095 3.08355 98.3896C3.08981 97.6696 3.23939 96.9582 3.52355 96.2966C3.80772 95.6351 4.22079 95.0368 4.73866 94.5366L44.4502 54.8251C44.1411 53.1035 44.2529 51.3327 44.7763 49.6638C45.2996 47.9948 46.2189 46.4772 47.4557 45.2404C48.6925 44.0036 50.2101 43.0843 51.8791 42.561C53.548 42.0377 55.3188 41.9258 57.0404 42.2349L96.7682 2.51253C97.7908 1.52485 99.1604 0.97833 100.582 0.990683C102.004 1.00304 103.364 1.57328 104.369 2.57858C105.374 3.58388 105.945 4.94382 105.957 6.36548C105.969 7.78714 105.423 9.15677 104.435 10.1794L65.3525 49.2728C66.0427 51.2062 66.1699 53.2958 65.7194 55.2986C65.2689 57.3014 64.2591 59.1352 62.8075 60.5868C61.3559 62.0384 59.5221 63.0482 57.5193 63.4987C55.5165 63.9492 53.4269 63.8165 51.4935 63.1263ZM92.3763 29.905C102.575 35.7826 109.353 43.9049 109.353 52.9056C109.353 70.8745 82.4701 85.4004 55.1318 85.4383C49.5685 85.4379 44.0205 84.8564 38.5781 83.7032L48.6686 73.6181C52.4467 74.7987 56.4759 74.9229 60.3195 73.9772C64.1632 73.0314 67.6747 71.0519 70.4736 68.2529C73.2726 65.454 75.2521 61.9425 76.1979 58.0988C77.1436 54.2552 77.0195 50.226 75.8388 46.4479L92.3763 29.905ZM69.8203 21.7936L59.8761 31.7377C56.3084 30.9368 52.5961 31.0509 49.0843 32.0695C45.5724 33.088 42.3752 34.9779 39.7896 37.5635C37.204 40.149 35.3142 43.3463 34.2956 46.8581C33.2771 50.3699 33.1629 54.0823 33.9638 57.65L16.4667 75.1363C7.05932 69.3238 0.910645 61.4997 0.910645 52.9056C0.910645 34.9368 27.9345 20.2808 55.1318 20.373C60.0876 20.3892 65.038 20.8826 69.8203 21.7936Z"/>
</svg>
