<svg width="109" height="66" viewBox="0 0 109 66" fill="white" xmlns="http://www.w3.org/2000/svg">
<path d="M54.2211 65.0658C26.8828 65.1037 0 50.502 0 32.5331C0 14.5642 27.0238 -0.0917435 54.2211 0.000432424C81.4184 0.0926083 108.442 14.5642 108.442 32.5331C108.442 50.502 81.5594 65.0278 54.2211 65.0658ZM54.2211 54.2216C59.9733 54.2216 65.4898 51.9365 69.5572 47.8692C73.6246 43.8018 75.9096 38.2852 75.9096 32.5331C75.9096 26.781 73.6246 21.2644 69.5572 17.1971C65.4898 13.1297 59.9733 10.8447 54.2211 10.8447C48.469 10.8447 42.9524 13.1297 38.8851 17.1971C34.8177 21.2644 32.5327 26.781 32.5327 32.5331C32.5327 38.2852 34.8177 43.8018 38.8851 47.8692C42.9524 51.9365 48.469 54.2216 54.2211 54.2216ZM54.2211 43.3773C51.3451 43.3773 48.5868 42.2348 46.5531 40.2011C44.5194 38.1674 43.3769 35.4092 43.3769 32.5331C43.3769 29.657 44.5194 26.8988 46.5531 24.8651C48.5868 22.8314 51.3451 21.6889 54.2211 21.6889C57.0972 21.6889 59.8555 22.8314 61.8892 24.8651C63.9228 26.8988 65.0654 29.657 65.0654 32.5331C65.0654 35.4092 63.9228 38.1674 61.8892 40.2011C59.8555 42.2348 57.0972 43.3773 54.2211 43.3773Z"/>
</svg>
