<svg width="36" height="44" viewBox="0 0 36 44" fill="white" xmlns="http://www.w3.org/2000/svg">
<path d="M18 33.1338C12.6663 26.0896 10 21.0776 10 18.0968C10 15.9494 10.8429 13.89 12.3431 12.3715C13.8434 10.8531 15.8783 10 18 10C20.1217 10 22.1566 10.8531 23.6569 12.3715C25.1571 13.89 26 15.9494 26 18.0968C26 21.0776 23.3337 26.0896 18 33.1338ZM18 22.7236C19.2124 22.7236 20.3752 22.2361 21.2325 21.3684C22.0898 20.5008 22.5714 19.3239 22.5714 18.0968C22.5714 16.8697 22.0898 15.6929 21.2325 14.8252C20.3752 13.9575 19.2124 13.4701 18 13.4701C16.7876 13.4701 15.6248 13.9575 14.7675 14.8252C13.9102 15.6929 13.4286 16.8697 13.4286 18.0968C13.4286 19.3239 13.9102 20.5008 14.7675 21.3684C15.6248 22.2361 16.7876 22.7236 18 22.7236Z"/>
</svg>
