<svg width="58" height="59" viewBox="0 0 58 59" fill="#E74362" xmlns="http://www.w3.org/2000/svg">
<g>
<path d="M17.4003 43.0333C21.6713 43.0333 25.1337 39.571 25.1337 35.3C25.1337 31.029 21.6713 27.5667 17.4003 27.5667C13.1293 27.5667 9.66699 31.029 9.66699 35.3C9.66699 39.571 13.1293 43.0333 17.4003 43.0333Z"/>
<path d="M35.7669 48.8333C38.4363 48.8333 40.6003 46.6694 40.6003 44C40.6003 41.3306 38.4363 39.1667 35.7669 39.1667C33.0976 39.1667 30.9336 41.3306 30.9336 44C30.9336 46.6694 33.0976 48.8333 35.7669 48.8333Z"/>
<path d="M36.7338 33.3667C43.1403 33.3667 48.3338 28.1732 48.3338 21.7667C48.3338 15.3602 43.1403 10.1667 36.7338 10.1667C30.3273 10.1667 25.1338 15.3602 25.1338 21.7667C25.1338 28.1732 30.3273 33.3667 36.7338 33.3667Z"/>
</g>
</svg>
